<?xml version="1.0" encoding="utf-8"?>
<!-- Generator: Adobe Illustrator 15.0.0, SVG Export Plug-In . SVG Version: 6.00 Build 0)  -->
<!DOCTYPE svg PUBLIC "-//W3C//DTD SVG 1.1//EN" "http://www.w3.org/Graphics/SVG/1.1/DTD/svg11.dtd">
<svg version="1.1" id="Layer_1" xmlns="http://www.w3.org/2000/svg" xmlns:xlink="http://www.w3.org/1999/xlink" x="0px" y="0px"
	 width="193px" height="193px" viewBox="0 0 193 193" enable-background="new 0 0 193 193" xml:space="preserve">
<rect fill="#ED1F24" width="193" height="193"/>
<g id="apps_logo">
	<circle fill="none" stroke="#FFFFFF" stroke-width="5" stroke-miterlimit="10" cx="75.3" cy="63.4" r="8.962"/>
	<circle fill="none" stroke="#FFFFFF" stroke-width="5" stroke-miterlimit="10" cx="75.116" cy="63.47" r="16.646"/>
	<path fill="none" stroke="#FFFFFF" stroke-width="3" stroke-miterlimit="10" d="M58.45,99.8c-0.552,0-1-0.415-1-0.93V63.728
		c0-0.513,0.448-0.928,1-0.928c0.552,0,1,0.415,1,0.928V98.87C59.45,99.385,59.002,99.8,58.45,99.8z"/>
	<path fill="none" stroke="#FFFFFF" stroke-width="3" stroke-miterlimit="10" d="M66.05,99.8c-0.552,0-1-0.243-1-0.542V78.743
		c0-0.301,0.448-0.542,1-0.542c0.552,0,1,0.242,1,0.542v20.515C67.05,99.557,66.602,99.8,66.05,99.8z"/>
	<rect x="60.96" y="63.343" fill="#ED1F24" width="2.58" height="15.821"/>
	<circle fill="none" stroke="#FFFFFF" stroke-width="5.5" stroke-miterlimit="10" cx="34.1" cy="37.644" r="10.6"/>
	<path fill="none" stroke="#FFFFFF" stroke-width="3.67" stroke-miterlimit="10" d="M53.754,82.396
		c-0.434,0-0.823-0.306-0.912-0.749l-9.108-45.236c-0.102-0.504,0.225-0.995,0.729-1.098c0.5-0.099,0.997,0.226,1.097,0.73
		l9.108,45.236c0.102,0.504-0.225,0.995-0.729,1.098C53.877,82.389,53.815,82.396,53.754,82.396z"/>
	<path fill="none" stroke="#FFFFFF" stroke-width="3.67" stroke-miterlimit="10" d="M14.459,82.396c0.434,0,0.823-0.306,0.912-0.749
		l9.108-45.236c0.102-0.504-0.225-0.995-0.729-1.098c-0.5-0.099-0.996,0.226-1.096,0.73L13.545,81.28
		c-0.102,0.504,0.225,0.995,0.729,1.098C14.336,82.389,14.398,82.396,14.459,82.396z"/>
	<path fill="none" stroke="#FFFFFF" stroke-width="3" stroke-miterlimit="10" d="M22.364,82.7c-0.069,0.001-0.14-0.006-0.21-0.019
		c-0.542-0.103-0.892-0.601-0.783-1.113l9.3-43.507c0.109-0.513,0.634-0.847,1.179-0.741c0.542,0.103,0.892,0.602,0.783,1.113
		l-9.3,43.508C23.238,82.386,22.826,82.694,22.364,82.7z"/>
	<path fill="none" stroke="#FFFFFF" stroke-width="3" stroke-miterlimit="10" d="M45.741,82.7c0.069,0.001,0.14-0.006,0.21-0.019
		c0.542-0.103,0.892-0.601,0.783-1.113l-9.301-43.507c-0.108-0.513-0.634-0.847-1.178-0.741c-0.542,0.103-0.892,0.602-0.783,1.113
		l9.3,43.508C44.867,82.386,45.279,82.694,45.741,82.7z"/>
	<line fill="none" stroke="#FFFFFF" stroke-width="5" stroke-miterlimit="10" x1="41.75" y1="68.2" x2="26.81" y2="68.2"/>
	<line fill="none" stroke="#FFFFFF" stroke-width="5" stroke-miterlimit="10" x1="39.815" y1="60.42" x2="26.81" y2="60.42"/>
</g>
<text transform="matrix(1 0 0 1 11.75 169.125)" fill="#FFFFFF" font-family="'ArialMT'" font-size="24">theappslab.com</text>
<rect x="22.647" y="62.922" fill="#ED1F24" width="22.77" height="2.776"/>
<polygon fill="#ED1F24" points="21.89,58.5 23.657,63.718 29.37,36.877 26.446,35.875 "/>
<polygon fill="#ED1F24" points="46.131,57.833 44.368,63.667 38.665,36.875 41.719,35.875 "/>
<path fill="#FFFFFF" d="M34.014,33.17c-2.622,0-4.754,2.13-4.754,4.754c0,2.169,1.468,3.977,3.456,4.544v-3.676l2.849-0.031v3.642
	c1.86-0.646,3.205-2.399,3.205-4.479C38.77,35.3,36.637,33.17,34.014,33.17z"/>
<circle fill="none" stroke="#FFFFFF" stroke-width="5" stroke-miterlimit="10" cx="114.193" cy="63.4" r="8.962"/>
<circle fill="none" stroke="#FFFFFF" stroke-width="5" stroke-miterlimit="10" cx="114.01" cy="63.47" r="16.646"/>
<path fill="none" stroke="#FFFFFF" stroke-width="3" stroke-miterlimit="10" d="M97.344,99.8c-0.552,0-1-0.415-1-0.93V63.728
	c0-0.513,0.448-0.928,1-0.928c0.553,0,1,0.415,1,0.928V98.87C98.344,99.385,97.896,99.8,97.344,99.8z"/>
<path fill="none" stroke="#FFFFFF" stroke-width="3" stroke-miterlimit="10" d="M104.943,99.8c-0.551,0-1-0.243-1-0.542V78.743
	c0-0.301,0.449-0.542,1-0.542c0.553,0,1,0.242,1,0.542v20.515C105.943,99.557,105.496,99.8,104.943,99.8z"/>
<rect x="99.854" y="63.343" fill="#ED1F24" width="2.58" height="15.821"/>
<circle fill="none" stroke="#FFFFFF" stroke-width="5" stroke-miterlimit="10" cx="166.3" cy="124.226" r="8.962"/>
<circle fill="none" stroke="#FFFFFF" stroke-width="5" stroke-miterlimit="10" cx="166.086" cy="124.154" r="16.646"/>
<path fill="none" stroke="#FFFFFF" stroke-width="3" stroke-miterlimit="10" d="M149.45,87.825c-0.552,0-1,0.415-1,0.93v35.142
	c0,0.515,0.448,0.93,1,0.93s1-0.415,1-0.93V88.755C150.45,88.24,150.002,87.825,149.45,87.825z"/>
<path fill="none" stroke="#FFFFFF" stroke-width="3" stroke-miterlimit="10" d="M157.05,87.825c-0.552,0-1,0.243-1,0.542v20.516
	c0,0.301,0.448,0.542,1,0.542s1-0.241,1-0.542V88.367C158.05,88.068,157.602,87.825,157.05,87.825z"/>
<rect x="151.96" y="108.461" fill="#ED1F24" width="2.58" height="15.821"/>
<circle fill="none" stroke="#FFFFFF" stroke-width="5.65" stroke-miterlimit="10" cx="95.051" cy="124.299" r="8.961"/>
<circle fill="none" stroke="#FFFFFF" stroke-width="5.65" stroke-miterlimit="10" cx="93.906" cy="125.154" r="16.645"/>
<rect x="94.567" y="124.08" fill="#ED1F24" width="24.177" height="20.324"/>
<rect x="88.29" y="103.236" fill="#ED1F24" width="25.665" height="21.568"/>
<path fill="none" stroke="#FFFFFF" stroke-width="3.67" stroke-miterlimit="10" d="M77.256,88.825c-0.552,0-1,0.415-1,0.93v35.142
	c0,0.515,0.448,0.93,1,0.93c0.552,0,1-0.415,1-0.93V89.755C78.256,89.24,77.808,88.825,77.256,88.825z"/>
<path fill="none" stroke="#FFFFFF" stroke-width="3.67" stroke-miterlimit="10" d="M86.126,88.825c-0.552,0-1,0.415-1,0.93v35.142
	c0,0.515,0.448,0.93,1,0.93c0.552,0,1-0.415,1-0.93V89.755C87.126,89.24,86.678,88.825,86.126,88.825z"/>
<rect x="80.091" y="108.508" fill="#ED1F24" width="3.19" height="16.561"/>
<path fill="none" stroke="#FFFFFF" stroke-width="3.67" stroke-miterlimit="10" d="M105.305,142.8H93.333
	c-0.483,0-0.874-0.446-0.874-1c0-0.553,0.391-1,0.874-1h11.972c0.48,0,0.872,0.447,0.872,1
	C106.177,142.354,105.786,142.8,105.305,142.8z"/>
<path fill="#FFFFFF" stroke="#FFFFFF" stroke-width="3.67" stroke-miterlimit="10" d="M105.376,134.25h-10.69
	c-0.431,0-0.781-0.447-0.781-1s0.35-1,0.781-1h10.69c0.431,0,0.78,0.447,0.78,1S105.807,134.25,105.376,134.25z"/>
<circle fill="none" stroke="#FFFFFF" stroke-width="5" stroke-miterlimit="10" cx="126.006" cy="124.399" r="8.962"/>
<circle fill="none" stroke="#FFFFFF" stroke-width="5" stroke-miterlimit="10" cx="126.216" cy="124.471" r="16.646"/>
<path fill="none" stroke="#FFFFFF" stroke-width="3" stroke-miterlimit="10" d="M142.855,143c0.552,0,1-0.216,1-0.482v-18.234
	c0-0.268-0.448-0.482-1-0.482c-0.553,0-1,0.217-1,0.482v18.234C141.855,142.784,142.305,143,142.855,143z"/>
<path fill="none" stroke="#FFFFFF" stroke-width="3" stroke-miterlimit="10" d="M135.256,143c0.553,0,1-0.042,1-0.096v-3.608
	c0-0.054-0.447-0.096-1-0.096c-0.552,0-1,0.042-1,0.096v3.608C134.256,142.958,134.704,143,135.256,143z"/>
<rect x="137.766" y="124.343" fill="#ED1F24" width="2.58" height="15.821"/>
<path fill="none" stroke="#FFFFFF" stroke-width="3" stroke-miterlimit="10" d="M130.693,74.293c-0.522,0-0.852-0.08-0.91-0.096
	c-0.32-0.085-0.512-0.414-0.426-0.734c0.086-0.317,0.408-0.507,0.729-0.426l0,0c0.063,0.013,6.469,1.421,10.521-13.019
	c4.319-15.379,16.675-14.094,16.801-14.079c0.328,0.039,0.563,0.337,0.523,0.666s-0.352,0.566-0.664,0.526
	c-0.469-0.05-11.47-1.153-15.504,13.212C138.227,72.947,132.833,74.293,130.693,74.293z"/>
<path fill="none" stroke="#FFFFFF" stroke-width="3" stroke-miterlimit="10" d="M130.654,81.188L130.654,81.188
	c-0.332-0.001-0.6-0.271-0.598-0.602c0-0.331,0.271-0.599,0.601-0.599h0.001c0,0,0,0,0.001,0c0.435,0,10.278-0.158,14.646-13.439
	c4.09-12.434,6.811-14.275,11.742-13.892c0.33,0.026,0.577,0.315,0.553,0.645c-0.027,0.33-0.32,0.573-0.646,0.551
	c-3.746-0.295-6.268,0.177-10.508,13.071C141.8,81.047,130.813,81.188,130.654,81.188z"/>
<polygon fill="#ED1F24" points="30.05,57.922 34.05,38.954 38.05,57.922 "/>
</svg>
